<svg xmlns="http://www.w3.org/2000/svg" width="206" height="165" viewBox="0 0 206 165" fill="none">
<path d="M78.3501 144.8H74.4501L67.3501 152.1V137.5H64.3501V162.4H67.3501V154.2L75.4501 162.3L75.5501 162.4H78.9501H79.1501V162.1L70.0501 153.1L78.3501 144.8Z" fill="white"/>
<path d="M59.1501 158.1C58.0501 159.2 56.4501 159.8 54.6501 159.8C51.5501 159.8 48.4501 157.9 48.4501 153.5C48.4501 149.8 51.0501 147.2 54.6501 147.2C56.2501 147.2 57.7501 147.8 58.9501 148.9L59.0501 149L60.9501 147L60.8501 146.9C59.0501 145.2 56.9501 144.4 54.5501 144.4C49.0501 144.4 45.3501 148.1 45.3501 153.5C45.3501 159.8 49.9501 162.6 54.5501 162.6H54.6501C57.0501 162.6 59.3501 161.7 60.9501 160L61.0501 159.9L59.0501 157.9L59.1501 158.1Z" fill="white"/>
<path d="M38.85 154.2C38.85 157.4 36.65 159.8 33.55 159.9C30.25 159.9 28.25 157.9 28.25 154.5V144.8H25.25V154.5C25.25 159.5 28.25 162.7 32.95 162.7H33.05C35.35 162.7 37.45 161.6 38.85 159.9L38.95 159.7L39.05 162.4H41.85V144.8H38.85V154.2Z" fill="white"/>
<path d="M9.35 137.4H0.25V162.4H9.35C18.05 162.4 21.85 156 21.85 149.7C21.85 143.8 17.95 137.4 9.35 137.4ZM18.75 149.6C18.75 154.4 15.85 159.2 9.45 159.2H3.45V140.5H9.35C15.75 140.5 18.75 145.2 18.75 149.6Z" fill="white"/>
<path d="M173.65 151.5H181.35V157.3C179.45 158.9 177.15 159.8 174.65 159.8C167.85 159.8 164.75 154.9 164.75 150.1C164.75 145.2 167.85 139.9 174.55 139.9C177.25 139.9 179.75 140.9 181.75 142.7L181.85 142.8L183.65 140.7L183.55 140.6C181.15 138.2 177.95 137 174.45 137C170.65 137 167.45 138.2 165.15 140.6C162.75 143 161.45 146.4 161.55 150.2C161.55 156.1 164.95 162.9 174.55 162.9C174.65 162.9 174.65 162.9 174.75 162.9C178.35 162.9 181.75 161.4 184.15 158.7V148.8H173.55V151.5H173.65Z" fill="white"/>
<path d="M91.0502 137.4H81.9502V162.4H91.0502C99.7502 162.4 103.55 156 103.55 149.7C103.55 143.8 99.6502 137.4 91.0502 137.4ZM100.45 149.6C100.45 154.4 97.5502 159.2 91.1502 159.2H85.2502V140.5H91.1502C97.4502 140.5 100.45 145.2 100.45 149.6Z" fill="white"/>
<path d="M196.35 144.4C191.05 144.4 187.25 148.3 187.25 153.6C187.25 158.9 191.05 162.7 196.35 162.7C201.65 162.7 205.55 158.9 205.55 153.6C205.55 148.2 201.75 144.4 196.35 144.4ZM202.55 153.6C202.55 157.3 199.95 159.9 196.35 159.9C192.85 159.9 190.25 157.3 190.25 153.6C190.25 149.8 192.75 147.1 196.45 147.1C199.95 147.2 202.55 149.9 202.55 153.6Z" fill="white"/>
<path d="M120.55 154.2C120.55 157.4 118.35 159.8 115.25 159.9C111.95 159.9 109.95 157.9 109.95 154.5V144.8H106.95V154.5C106.95 159.5 109.95 162.7 114.55 162.7H114.65C116.95 162.7 119.05 161.6 120.45 159.9L120.55 159.7L120.65 162.4H123.45V144.8H120.45V154.2H120.55Z" fill="white"/>
<path d="M140.85 158.1C139.75 159.2 138.15 159.8 136.35 159.8C133.25 159.8 130.15 157.9 130.15 153.5C130.15 149.8 132.75 147.2 136.35 147.2C137.95 147.2 139.45 147.8 140.65 148.9L140.75 149L142.65 147L142.55 146.9C140.75 145.2 138.65 144.4 136.25 144.4C130.75 144.4 127.05 148.1 127.05 153.5C127.05 159.8 131.65 162.6 136.25 162.6H136.35C138.75 162.6 141.05 161.7 142.65 160L142.75 159.9L140.75 157.9L140.85 158.1Z" fill="white"/>
<path d="M160.05 144.8H156.15L149.05 152.1V137.5H146.05V162.4H149.05V154.2L157.15 162.3L157.25 162.4H160.65H160.85V162.1L151.75 153.1L160.05 144.8Z" fill="white"/>
<path fill-rule="evenodd" clip-rule="evenodd" d="M103 120C136.137 120 163 93.1371 163 60C163 26.8629 136.137 0 103 0C69.8629 0 43 26.8629 43 60C43 93.1371 69.8629 120 103 120Z" fill="#DE5833"/>
<path fill-rule="evenodd" clip-rule="evenodd" d="M111.438 104.766C111.438 104.297 111.553 104.19 110.063 101.22C106.103 93.2899 102.123 82.1099 103.933 74.8999C104.263 73.5899 100.203 26.3899 97.3326 24.8699C94.1426 23.1699 90.2176 20.4732 86.6276 19.8732C84.8062 19.5818 82.4179 19.7198 80.551 19.9712C80.2191 20.0159 80.2054 20.6123 80.5225 20.7198C81.7482 21.135 83.2365 21.856 84.1137 22.9462C84.2797 23.1525 84.0569 23.4771 83.7922 23.4869C82.9654 23.5175 81.4655 23.8641 79.4865 25.545C79.2576 25.7394 79.4477 26.1004 79.7423 26.0421C83.9953 25.2007 88.3388 25.6152 90.8985 27.9418C91.0646 28.0928 90.9777 28.3637 90.7612 28.4225C68.5479 34.4591 72.9452 53.7821 78.8586 77.4948C84.1073 98.5422 86.094 105.376 86.7264 107.476C86.7909 107.691 86.9421 107.862 87.1501 107.944C94.8059 110.981 111.438 111.112 111.438 105.938V104.766Z" fill="#DDDDDD"/>
<path fill-rule="evenodd" clip-rule="evenodd" d="M158.078 60C158.078 90.4188 133.419 115.078 103 115.078C72.5812 115.078 47.9219 90.4188 47.9219 60C47.9219 29.5812 72.5812 4.92188 103 4.92188C133.419 4.92188 158.078 29.5812 158.078 60ZM90.1461 108.736C88.6241 104.035 84.3706 90.4075 80.1694 73.186C80.0294 72.6122 79.8896 72.0411 79.7504 71.4728L79.747 71.4586C74.6616 50.6873 70.5081 33.7219 93.2723 28.3922C93.4805 28.3435 93.5822 28.0946 93.4445 27.9312C90.8326 24.8327 85.9396 23.8171 79.7527 25.9515C79.4989 26.039 79.2786 25.7831 79.4363 25.5659C80.6495 23.8936 83.0203 22.6079 84.1908 22.0442C84.4327 21.9277 84.418 21.5735 84.1618 21.4933C83.3961 21.2536 82.0926 20.8869 80.6263 20.6502C80.2794 20.5942 80.2481 19.9997 80.5964 19.9528C89.3674 18.7728 98.5265 21.4061 103.123 27.1957C103.166 27.2502 103.229 27.2883 103.297 27.3029C120.127 30.9174 121.332 57.5232 119.394 58.735C119.011 58.9739 117.786 58.8368 116.17 58.656C109.622 57.9233 96.6536 56.4724 107.356 76.4191C107.462 76.6161 107.322 76.8769 107.101 76.9112C101.086 77.8465 108.747 96.631 114.425 109.09C136.752 103.914 153.391 83.9002 153.391 60C153.391 32.17 130.83 9.60938 103 9.60938C75.17 9.60938 52.6094 32.17 52.6094 60C52.6094 83.3876 68.5424 103.054 90.1461 108.736Z" fill="white"/>
<path d="M122.013 85.0294C120.731 84.4357 115.805 87.9688 112.535 90.6809C111.851 89.7141 110.563 89.0112 107.656 89.5166C105.113 89.9589 103.708 90.5723 103.082 91.6297C99.0664 90.1074 92.3115 87.7581 90.6797 90.027C88.8958 92.5072 91.1254 104.24 93.4946 105.763C94.7316 106.559 100.648 102.756 103.738 100.133C104.237 100.835 105.039 101.237 106.689 101.199C109.184 101.141 113.231 100.561 113.859 99.3985C113.898 99.328 113.93 99.2445 113.958 99.1494C117.134 100.336 122.723 101.593 123.972 101.405C127.226 100.916 123.519 85.7274 122.013 85.0294Z" fill="#3CA82B"/>
<path d="M112.835 91.028C112.97 91.2682 113.078 91.5217 113.17 91.7793C113.623 93.0454 114.36 97.0735 113.803 98.0684C113.245 99.0633 109.622 99.5438 107.387 99.5824C105.152 99.6209 104.649 98.8035 104.196 97.5374C103.834 96.5245 103.656 94.143 103.66 92.7794C103.568 90.7568 104.307 90.0457 107.723 89.493C110.251 89.0839 111.587 89.5597 112.359 90.3738C115.947 87.6954 121.935 83.9156 122.519 84.6063C125.431 88.0509 125.799 96.2507 125.168 99.5497C124.962 100.628 115.32 98.4811 115.32 97.318C115.32 92.4884 114.067 91.1635 112.835 91.028Z" fill="#4CBA3C"/>
<path d="M91.7132 89.5198C92.5029 88.2699 98.907 89.8242 102.422 91.3887C102.422 91.3887 101.7 94.6616 102.85 98.5174C103.187 99.6452 94.7624 104.665 93.6628 103.802C92.392 102.803 90.0532 92.1469 91.7132 89.5198Z" fill="#4CBA3C"/>
<path fill-rule="evenodd" clip-rule="evenodd" d="M94.8146 64.1312C95.3327 61.878 97.7464 57.6323 106.366 57.7354C110.723 57.7173 116.136 57.7335 119.724 57.3259C125.058 56.7201 129.017 55.4299 131.655 54.4244C135.386 53.0009 136.71 53.3184 137.175 54.1701C137.685 55.1059 137.084 56.7219 135.78 58.2095C133.29 61.0509 128.813 63.2526 120.907 63.9061C113 64.5596 107.762 62.4388 105.507 65.8917C104.535 67.381 105.287 70.8909 112.933 71.9962C123.265 73.4873 131.751 70.1994 132.799 72.1851C133.847 74.1708 127.808 78.2109 117.459 78.2955C107.11 78.3801 100.646 74.6722 98.3538 72.8291C95.4455 70.4906 94.144 67.0803 94.8146 64.1312Z" fill="#FFCC33"/>
<g opacity="0.8">
<path d="M107.994 39.4941C108.571 38.5489 109.851 37.8193 111.946 37.8193C114.041 37.8193 115.027 38.6529 115.709 39.5824C115.848 39.7715 115.637 39.994 115.422 39.901C115.37 39.8786 115.318 39.8557 115.265 39.8324C114.498 39.4978 113.558 39.087 111.946 39.0641C110.223 39.0395 109.136 39.4712 108.451 39.8433C108.221 39.9686 107.857 39.7181 107.994 39.4941Z" fill="#14307E"/>
<path d="M84.4102 40.7034C86.4443 39.8533 88.0429 39.9632 89.1731 40.2306C89.4111 40.2868 89.5765 40.0308 89.3861 39.8773C88.5089 39.1697 86.5457 38.2914 83.9852 39.2461C81.7011 40.0978 80.6245 41.8674 80.6182 43.0309C80.6167 43.305 81.1808 43.3283 81.3267 43.0962C81.7209 42.4691 82.3762 41.5534 84.4102 40.7034Z" fill="#14307E"/>
<path fill-rule="evenodd" clip-rule="evenodd" d="M113.726 52.4248C111.927 52.4248 110.469 50.9702 110.469 49.1799C110.469 47.3896 111.927 45.935 113.726 45.935C115.524 45.935 116.982 47.3896 116.982 49.1799C116.982 50.9702 115.524 52.4248 113.726 52.4248ZM116.019 48.1049C116.019 47.6413 115.64 47.2657 115.176 47.2657C114.713 47.2657 114.337 47.6413 114.333 48.1049C114.333 48.5685 114.713 48.9441 115.176 48.9441C115.644 48.9441 116.019 48.5685 116.019 48.1049Z" fill="#14307E"/>
<path fill-rule="evenodd" clip-rule="evenodd" d="M92.147 51.4256C92.147 53.5156 90.4486 55.21 88.3506 55.21C86.2567 55.21 84.5543 53.5156 84.5543 51.4256C84.5543 49.3356 86.2567 47.6412 88.3506 47.6412C90.4446 47.6412 92.147 49.3356 92.147 51.4256ZM91.0281 50.1708C91.0281 49.6313 90.5885 49.1917 90.045 49.1917C89.5055 49.1917 89.066 49.6273 89.062 50.1708C89.062 50.7103 89.5015 51.1499 90.045 51.1499C90.5885 51.1499 91.0281 50.7103 91.0281 50.1708Z" fill="#14307E"/>
</g>
</svg>